HIERARCHY
ROOT Hips
{
	OFFSET 0.00000 0.00000 0.00000
	CHANNELS 6 Xposition Yposition Zposition Zrotation Yrotation Xrotation 
	JOINT LHipJoint
	{
		OFFSET 0 0 0
		CHANNELS 3 Zrotation Yrotation Xrotation
		JOINT LeftHip
		{
			OFFSET 1.80322 -1.53100 0.99595
			CHANNELS 3 Zrotation Yrotation Xrotation
			JOINT LeftKnee
			{
				OFFSET 2.25177 -6.18669 0.00000
				CHANNELS 3 Zrotation Yrotation Xrotation
				JOINT LeftAnkle
				{
					OFFSET 2.26601 -6.22582 0.00000
					CHANNELS 3 Zrotation Yrotation Xrotation
					JOINT LeftToe
					{
						OFFSET 0.23701 -0.65119 2.15848
						CHANNELS 3 Zrotation Yrotation Xrotation
						End Site
						{
							OFFSET 0.00000 -0.00000 1.12949
						}
					}
				}
			}
		}
	}
	JOINT RHipJoint
	{
		OFFSET 0 0 0
		CHANNELS 3 Zrotation Yrotation Xrotation
		JOINT RightHip
		{
			OFFSET -1.93977 -1.53100 0.99595
			CHANNELS 3 Zrotation Yrotation Xrotation
			JOINT RightKnee
			{
				OFFSET -2.28036 -6.26523 0.00000
				CHANNELS 3 Zrotation Yrotation Xrotation
				JOINT RightAnkle
				{
					OFFSET -2.25490 -6.19528 0.00000
					CHANNELS 3 Zrotation Yrotation Xrotation
					JOINT RightToe
					{
						OFFSET -0.28375 -0.77960 2.23137
						CHANNELS 3 Zrotation Yrotation Xrotation
						End Site
						{
							OFFSET -0.00000 -0.00000 1.17899
						}
					}
				}
			}
		}
	}
	JOINT lowerback
	{
		OFFSET 0 0 0
		CHANNELS 3 Zrotation Yrotation Xrotation
		JOINT Chest
		{
			OFFSET -0.00088 2.12090 -0.02806
			CHANNELS 3 Zrotation Yrotation Xrotation
			JOINT Chest2
			{
				OFFSET -0.00286 2.09666 0.12974
				CHANNELS 3 Zrotation Yrotation Xrotation
				JOINT lowerneck
				{
					OFFSET 0 0 0
					CHANNELS 3 Zrotation Yrotation Xrotation
					JOINT Neck
					{
						OFFSET 0.07328 1.83526 0.07290
						CHANNELS 3 Zrotation Yrotation Xrotation
						JOINT Head
						{
							OFFSET -0.06683 1.74974 -0.49542
							CHANNELS 3 Zrotation Yrotation Xrotation
							End Site
							{
								OFFSET -0.03398 1.85163 -0.17573
							}
						}
					}
				}
				JOINT LeftCollar
				{
					OFFSET 0 0 0
					CHANNELS 3 Zrotation Yrotation Xrotation
					JOINT LeftShoulder
					{
						OFFSET 3.02113 1.18018 0.40602
CHANNELS 3 Zrotation Xrotation Yrotation
						JOINT LeftElbow
						{
OFFSET 0 -4.585380 -0.000000
CHANNELS 3 Zrotation Xrotation Yrotation
							JOINT LeftWrist
							{
OFFSET 0 -2.689350 -0.000000
CHANNELS 3 Zrotation Xrotation Yrotation
								JOINT lhand
								{
									OFFSET 0 0 0
CHANNELS 3 Zrotation Xrotation Yrotation
									JOINT LFingers
									{
OFFSET 0 -0.585060 -0.000000
CHANNELS 3 Zrotation Xrotation Yrotation
										End Site
										{
OFFSET 0 -0.471690 -0.000000
										}
									}
								}
								JOINT LThumb
								{
OFFSET 0 0.000000 0.000000
CHANNELS 3 Zrotation Xrotation Yrotation
									End Site
									{
OFFSET 0 -0.478890 0.478890
									}
								}
							}
						}
					}
				}
				JOINT RightCollar
				{
					OFFSET 0 0 0
					CHANNELS 3 Zrotation Yrotation Xrotation
					JOINT RightShoulder
					{
						OFFSET -2.95074 1.18843 0.31430
CHANNELS 3 Zrotation Xrotation Yrotation
						JOINT RightElbow
						{
OFFSET 0 -4.474500 -0.000000
CHANNELS 3 Zrotation Xrotation Yrotation
							JOINT RightWrist
							{
OFFSET 0 -2.938960 -0.000000
CHANNELS 3 Zrotation Xrotation Yrotation
								JOINT rhand
								{
									OFFSET 0 0 0
CHANNELS 3 Zrotation Xrotation Yrotation
									JOINT RFingers
									{
OFFSET 0 -0.405090 -0.000000
CHANNELS 3 Zrotation Xrotation Yrotation
										End Site
										{
OFFSET 0 -0.326600 -0.000000
										}
									}
								}
								JOINT RThumb
								{
OFFSET 0 0.000000 0.000000
CHANNELS 3 Zrotation Xrotation Yrotation
									End Site
									{
OFFSET 0 -0.331580 0.331580
									}
								}
							}
						}
					}
				}
			}
		}
	}
}
MOTION
Frames: 10
Frame Time: 0.008333333333333333
-1.127900 15.808200 4.193800 -0.030400 -12.194600 6.407800 0.000000 0.000000 0.000000 -12.703100 0.427600 5.240200 0.000000 0.000000 0.000000 -0.728900 17.741800 -16.906700 0.239500 3.149700 8.695900 0.000000 0.000000 0.000000 14.747500 11.761200 -8.281100 -1.474400 -7.672700 21.724400 -0.602100 -6.630600 -18.554900 -0.032400 1.161900 -3.194500 1.165900 -3.644500 -4.969100 1.884600 -4.864800 -6.916300 1.243500 -2.453900 -4.308800 -1.989000 -5.586500 -11.602300 -2.651800 -7.002300 27.196800 -1.492900 -3.805100 10.603400 -0.000000 -0.000000 0.000000 -0.104100 10.279700 -30.403900 19.545800 -30.091200 5.301700 6.622900 17.453800 -13.979500 0.000000 0.000000 0.000000 -7.125000 0.000000 0.000000 -18.825500 43.223300 -0.858000 -0.000000 -0.000000 0.000000 -8.625500 11.632700 26.785000 -14.617800 -23.610900 -3.071200 -11.370700 7.982800 7.415100 0.000000 0.000000 0.000000 7.125000 0.000000 -0.000000 13.077000 37.249400 2.547100
-1.151447 15.813646 4.160623 -0.079921 -11.472953 6.644649 0.000000 0.000000 0.000000 -12.498506 -0.407871 4.924736 0.000000 0.000000 0.000000 -0.783585 17.983988 -16.592504 0.208669 2.941026 8.114695 0.000000 0.000000 0.000000 14.903202 11.661706 -8.443892 -1.458223 -7.632238 21.602583 -0.576984 -7.073901 -18.644273 -0.025992 1.041451 -2.862907 1.046617 -3.824771 -5.212347 1.953047 -5.103387 -7.081507 1.366838 -2.566655 -4.328156 -2.087469 -5.404619 -11.383443 -2.791405 -6.704993 27.956808 -1.506379 -3.699928 10.845071 0.000000 0.000000 0.000000 -0.991002 10.458223 -30.379498 19.430441 -29.949986 5.244013 6.392881 17.566053 -13.832213 0.000000 0.000000 0.000000 -7.125000 0.000000 0.000000 -18.976404 43.059651 -0.945332 0.000000 0.000000 0.000000 -7.144146 11.369416 26.690685 -14.605179 -23.593214 -3.066181 -11.127454 8.121606 8.218284 0.000000 0.000000 0.000000 7.125000 0.000000 0.000000 13.442965 38.028899 2.358487
-1.163524 15.811592 4.150523 -0.294992 -10.970772 6.722264 0.000000 0.000000 0.000000 -12.183041 -0.908365 4.910835 0.000000 0.000000 0.000000 -0.788907 18.009622 -16.566781 0.206116 2.922810 8.064006 0.000000 0.000000 0.000000 15.220329 11.534767 -8.321304 -1.432582 -7.567771 21.408744 -0.559969 -7.349616 -18.690592 -0.024361 1.007875 -2.770618 1.148237 -3.807248 -5.412075 1.969631 -5.084553 -7.044567 1.311057 -2.561573 -4.185272 -2.024368 -5.378882 -11.416821 -2.852398 -6.671764 28.425515 -1.551187 -3.685834 11.023720 0.000000 0.000000 0.000000 -1.606763 11.037144 -29.742314 19.319687 -29.813960 5.188863 6.150421 17.602970 -13.612561 0.000000 0.000000 0.000000 -7.125000 0.000000 0.000000 -19.113935 42.826163 -1.067568 0.000000 0.000000 0.000000 -6.458704 11.468106 28.757362 -14.968653 -24.102461 -3.213124 -11.425742 7.481683 7.317041 0.000000 0.000000 0.000000 7.125000 0.000000 0.000000 13.012003 37.155558 2.564498
-1.168224 15.811170 4.151292 -0.490741 -10.678372 6.804987 0.000000 0.000000 0.000000 -11.932768 -1.185601 4.906161 0.000000 0.000000 0.000000 -0.784185 17.983663 -16.581922 0.210238 2.952060 8.145195 0.000000 0.000000 0.000000 15.456082 11.263489 -8.237717 -1.396789 -7.476692 21.135630 -0.551775 -7.364329 -18.613834 -0.027262 1.065766 -2.929750 1.118168 -3.654416 -5.529751 2.001787 -4.880411 -7.035956 1.354995 -2.457066 -4.107151 -1.931173 -5.472083 -11.292333 -2.786239 -6.851020 28.563482 -1.564980 -3.749174 11.048425 0.000000 0.000000 0.000000 -1.856458 11.869699 -28.396041 18.707662 -29.053721 4.888128 6.043341 18.172883 -13.459211 0.000000 0.000000 0.000000 -7.125000 0.000000 0.000000 -19.156184 42.670051 -1.147097 0.000000 0.000000 0.000000 -6.379714 11.361779 29.982831 -15.018258 -24.171533 -3.233451 -10.614263 7.747511 7.438985 0.000000 0.000000 0.000000 7.125000 0.000000 0.000000 13.709743 37.224756 2.684445
-1.168669 15.813216 4.154831 -0.660433 -10.382413 6.923245 0.000000 0.000000 0.000000 -11.724628 -1.484255 4.841992 0.000000 0.000000 0.000000 -0.793163 18.020181 -16.522021 0.200699 2.885014 7.958712 0.000000 0.000000 0.000000 15.663788 11.207672 -8.084427 -1.356833 -7.373271 20.826151 -0.526312 -7.618005 -18.554154 -0.029093 1.101486 -3.028195 1.080279 -3.530714 -5.656462 2.049524 -4.714670 -7.049424 1.419657 -2.371212 -4.045443 -1.715724 -5.449920 -11.133522 -3.033562 -6.797855 28.577082 -1.676190 -3.731902 11.001886 0.000000 0.000000 0.000000 -1.981037 12.536679 -24.642336 17.424746 -27.414190 4.281169 5.167564 19.602796 -13.642803 0.000000 0.000000 0.000000 -7.125000 0.000000 0.000000 -19.970932 42.754158 -1.156854 0.000000 0.000000 0.000000 -6.460706 10.795491 29.496893 -14.501146 -23.446612 -3.024697 -10.324451 9.585483 8.271849 0.000000 0.000000 0.000000 7.125000 0.000000 0.000000 14.125534 38.026079 2.484984
-1.161622 15.814400 4.158639 -0.782697 -10.300554 7.046332 0.000000 0.000000 0.000000 -11.602197 -1.576842 4.737253 0.000000 0.000000 0.000000 -0.797446 18.015281 -16.436547 0.188982 2.799821 7.721859 0.000000 0.000000 0.000000 15.761041 11.251832 -8.035756 -1.330129 -7.303325 20.617076 -0.517355 -7.742796 -18.565281 -0.026614 1.054010 -2.897482 1.169907 -3.388418 -5.720301 2.115629 -4.526457 -7.042112 1.437532 -2.279333 -4.006423 -0.173441 -4.313802 -10.993879 -4.325159 -5.130505 28.192747 -2.171333 -2.959926 10.746335 0.000000 0.000000 0.000000 -1.929953 13.203758 -19.587600 16.452899 -26.130864 3.843280 3.930423 19.812061 -14.723013 0.000000 0.000000 0.000000 -7.125000 0.000000 0.000000 -21.415355 43.635342 -0.757930 0.000000 0.000000 0.000000 -6.919150 10.951511 29.729325 -14.980150 -24.118301 -3.217926 -10.437151 8.930658 8.088567 0.000000 0.000000 0.000000 7.125000 0.000000 0.000000 13.992274 37.853405 2.521099
-1.151614 15.813916 4.161176 -0.765082 -10.263166 7.179109 0.000000 0.000000 0.000000 -11.641359 -1.651064 4.588658 0.000000 0.000000 0.000000 -0.800457 18.000090 -16.348278 0.175018 2.694895 7.430295 0.000000 0.000000 0.000000 15.674423 11.310171 -8.194436 -1.337020 -7.321388 20.671065 -0.523255 -7.787334 -18.670765 -0.023545 0.990039 -2.721407 1.356560 -3.210539 -5.712566 2.102857 -4.296399 -6.855579 1.317974 -2.172074 -3.832344 3.293032 -1.291402 -11.005007 -6.616044 -0.920213 27.195170 -3.057334 -0.921517 10.433438 0.000000 0.000000 0.000000 -1.700481 14.489479 -16.119461 18.208107 -28.422359 4.648048 1.401113 14.769376 -17.447298 0.000000 0.000000 0.000000 -7.125000 0.000000 0.000000 -24.701387 45.846900 0.550141 0.000000 0.000000 0.000000 -7.602241 13.001066 32.683356 -19.256081 -29.734208 -5.157958 -10.531796 2.140127 7.445283 0.000000 0.000000 0.000000 7.125000 0.000000 0.000000 13.779489 37.225572 2.698276
-1.147008 15.822665 4.153550 -0.634453 -10.000489 7.545882 0.000000 0.000000 0.000000 -11.766120 -2.069207 4.076702 0.000000 0.000000 0.000000 -0.871490 18.292209 -15.853101 0.113764 2.174623 5.988599 0.000000 0.000000 0.000000 15.472921 11.334002 -8.661559 -1.349330 -7.353690 20.767470 -0.513598 -8.059024 -18.808309 -0.019015 0.890910 -2.448593 1.623888 -3.007790 -5.556777 2.015049 -4.035661 -6.520861 1.080471 -2.052858 -3.595293 7.371662 2.572951 -10.399125 -9.764537 4.511298 24.892714 -4.192583 1.684782 9.973972 0.000000 0.000000 0.000000 -1.190975 17.442465 -17.104245 26.488793 -37.684284 9.186138 1.056529 5.137424 -18.662604 0.000000 0.000000 0.000000 -7.125000 0.000000 0.000000 -25.552230 46.902549 1.281209 0.000000 0.000000 0.000000 -8.010880 17.471916 36.891638 -31.852324 -42.423775 -12.643048 -14.231889 -9.720320 3.473833 0.000000 0.000000 0.000000 7.125000 0.000000 0.000000 10.089196 33.437198 2.898058
-1.150694 15.846739 4.122641 -0.526835 -9.083668 8.312865 0.000000 0.000000 0.000000 -11.725615 -3.349254 2.897588 0.000000 0.000000 0.000000 -1.071715 19.171398 -14.468911 0.024190 1.001439 2.752696 0.000000 0.000000 0.000000 15.363349 11.267255 -9.414342 -1.336092 -7.318979 20.663890 -0.441330 -9.048654 -18.949241 -0.021223 0.941380 -2.587527 1.976720 -2.671945 -5.176876 1.749800 -3.593759 -6.301120 0.634033 -1.849706 -3.618535 10.035213 5.571127 -9.481774 -12.566494 8.835191 22.206725 -5.064287 3.723757 9.554788 0.000000 0.000000 0.000000 0.294886 21.156185 -20.459298 47.225516 -51.792152 23.981473 5.405222 -0.162052 -17.613724 0.000000 0.000000 0.000000 -7.125000 0.000000 0.000000 -21.239018 46.502744 0.824953 0.000000 0.000000 0.000000 -7.215857 21.047891 38.991218 -57.036178 -55.448481 -31.891407 -22.153747 -17.795103 1.212074 0.000000 0.000000 0.000000 7.125000 0.000000 0.000000 3.528163 31.276592 1.185001
-1.150073 15.880165 4.050614 -0.479992 -6.020007 9.290084 0.000000 0.000000 0.000000 -11.426235 -8.406868 -2.612200 0.194462 2.830158 7.806835 -0.967066 19.068857 -16.251716 0.001874 -0.269202 -0.739589 0.000000 0.000000 0.000000 15.463891 10.381132 -9.749532 -1.213110 -6.986846 19.676391 -0.309972 -11.070928 -19.644378 -0.027806 1.076882 -2.960345 2.180599 -2.395287 -4.465117 1.184923 -3.216798 -6.283775 -0.019660 -1.681734 -4.041474 11.077686 6.891967 -9.278896 -13.570851 10.658753 20.772935 -5.327597 4.605637 9.382434 0.000000 0.000000 0.000000 3.930772 22.423079 -25.242559 85.686989 -59.900261 56.266927 10.833172 0.302709 -14.046321 0.000000 0.000000 0.000000 -7.125000 0.000000 0.000000 -15.158458 43.736074 -0.483654 0.000000 0.000000 0.000000 -7.261125 19.833963 42.597577 -92.975654 -59.948199 -62.576251 -26.419005 -21.386058 -0.623131 0.000000 0.000000 0.000000 7.125000 0.000000 0.000000 0.115931 29.283767 0.043957
